<svg width="25" height="24" viewBox="0 0 25 24" fill="none" xmlns="http://www.w3.org/2000/svg">
<path d="M17.9893 5.84999H18.0495L18.0384 5.79081C17.9946 5.55645 17.9754 5.42889 17.9611 5.33367C17.9326 5.14415 17.9234 5.08271 17.7778 4.56237C17.5567 3.77219 17.0607 3.04214 16.3428 2.4458C15.6249 1.84951 14.7102 1.40766 13.6926 1.16419C12.6748 0.920721 11.5895 0.884102 10.5469 1.05798C9.50438 1.23186 8.5409 1.61018 7.75504 2.15531C6.96917 2.70045 6.3882 3.39355 6.0736 4.16504L6.07334 4.16493L6.07185 4.17008C5.80691 5.09001 5.82633 6.09723 6.07217 6.8819C6.10299 6.98028 6.13258 7.05039 6.16109 7.09677C6.17532 7.11992 6.19062 7.1394 6.20755 7.15346C6.22459 7.16761 6.24652 7.17881 6.27219 7.17803C6.2984 7.17722 6.31878 7.16423 6.33284 7.14952C6.34649 7.13525 6.35626 7.11744 6.36346 7.09994C6.37793 7.06478 6.38634 7.02004 6.38971 6.97449C6.391 6.95717 6.39159 6.93931 6.39144 6.92127L6.83548 7.13971L6.88858 7.05565C6.83348 7.01202 6.7881 6.97761 6.75104 6.95068C6.76838 6.93267 6.78105 6.90859 6.78879 6.8794C6.80047 6.83532 6.80191 6.77678 6.79161 6.70024C6.78124 6.62314 6.7585 6.52463 6.71915 6.39901C6.50711 5.72222 6.53814 5.01558 6.80941 4.35033C7.08083 3.68475 7.58364 3.08307 8.26875 2.60782C8.95388 2.13257 9.79596 1.8014 10.7094 1.64906C11.6227 1.49673 12.5737 1.52885 13.4649 1.74206C14.3561 1.95528 15.1547 2.34171 15.7797 2.8608C16.4045 3.37984 16.8328 4.01235 17.0232 4.69292C17.1198 5.03819 17.1912 5.31779 17.2385 5.51098C17.2621 5.60758 17.2797 5.68257 17.2913 5.73336L17.3044 5.79108L17.3076 5.80571L17.3084 5.80937L17.3086 5.81027L17.3087 5.81049L17.3087 5.81054L17.3087 5.81055L17.3172 5.84999H17.3576H17.9893Z" fill="#D4AF37" fill-opacity="0.7" stroke="#FFD700" stroke-width="0.1"/>
<path d="M3.224 18.0505C3.17271 18.0222 3.11026 18.0217 3.05992 18.0517C2.73359 18.2457 2.50551 18.4858 2.39469 18.7529C2.27483 19.0418 2.29606 19.3528 2.45638 19.6568C2.6167 19.9608 2.91086 20.2479 3.31133 20.4912C3.7118 20.7345 4.20546 20.926 4.7461 21.0478C5.28674 21.1696 5.85666 21.2177 6.40249 21.1876C6.94833 21.1575 7.45222 21.0502 7.86698 20.8757C8.28174 20.7012 8.59381 20.4653 8.77395 20.19C8.92237 19.9632 8.97724 19.7158 8.93633 19.4638C8.92047 19.366 8.8291 19.3033 8.7301 19.3056V19.3056C8.58039 19.3091 8.47807 19.4584 8.47474 19.6081C8.47116 19.7695 8.42083 19.9268 8.32456 20.0739C8.1702 20.3098 7.90279 20.5119 7.54739 20.6614C7.19199 20.8109 6.76021 20.9029 6.29249 20.9287C5.82477 20.9545 5.33641 20.9133 4.87314 20.8089C4.40988 20.7045 3.98686 20.5404 3.6437 20.332C3.30055 20.1235 3.04848 19.8775 2.9111 19.617C2.77373 19.3565 2.75554 19.0899 2.85824 18.8424C2.92966 18.6703 3.05789 18.5113 3.23602 18.3723C3.34287 18.2889 3.3427 18.1159 3.224 18.0505V18.0505Z" fill="black" stroke="black" stroke-width="0.5"/>
<path d="M2.97329 11.5722C2.98311 11.4213 2.86143 11.2922 2.71392 11.3252C2.48311 11.3767 2.25387 11.4892 2.03498 11.6594C1.7284 11.8977 1.44996 12.2429 1.22024 12.6695C0.990516 13.0962 0.815372 13.5934 0.707745 14.1243C0.600119 14.6553 0.56276 15.2065 0.59843 15.7372C0.634099 16.268 0.741885 16.7646 0.913824 17.1906C1.08576 17.6165 1.31746 17.9608 1.59181 18.1981C1.86616 18.4353 2.17614 18.5594 2.49885 18.5613C2.78253 18.5629 3.06968 18.47 3.34389 18.2886C3.4141 18.2422 3.44507 18.1562 3.42747 18.0739V18.0739C3.39418 17.9181 3.20862 17.8498 3.06467 17.9179C2.8903 18.0005 2.71211 18.0422 2.53548 18.0412C2.25895 18.0396 1.99333 17.9332 1.75824 17.7299C1.52316 17.5266 1.32462 17.2316 1.17729 16.8666C1.02995 16.5016 0.937593 16.0761 0.907028 15.6213C0.876464 15.1665 0.908476 14.6942 1.0007 14.2392C1.09292 13.7842 1.243 13.3582 1.43985 12.9926C1.6367 12.627 1.87529 12.3312 2.13799 12.127C2.32514 11.9815 2.52112 11.8852 2.71846 11.8409C2.85119 11.8111 2.96445 11.7079 2.97329 11.5722V11.5722Z" fill="black" stroke="black" stroke-width="0.5"/>
<path d="M9.02137 8.75666C9.15483 8.6866 9.20366 8.51879 9.11811 8.39469C8.63544 7.69456 7.91193 7.17207 7.0698 6.92217C6.13652 6.64521 5.13063 6.72471 4.26459 7.14388C3.39855 7.56304 2.74016 8.28905 2.42848 9.16856C2.14502 9.96847 2.16854 10.8384 2.48958 11.6251C2.54338 11.7569 2.69699 11.8117 2.82709 11.7539V11.7539C2.96499 11.6926 3.02297 11.5291 2.96866 11.3883C2.71418 10.7286 2.70141 10.0046 2.93782 9.33753C3.20488 8.58389 3.76905 7.96178 4.51115 7.6026C5.25326 7.24342 6.11519 7.1753 6.9149 7.41262C7.63107 7.62515 8.24713 8.06773 8.66069 8.66086C8.74174 8.77711 8.8959 8.82252 9.02137 8.75666V8.75666Z" fill="black" stroke="black" stroke-width="0.5"/>
<path d="M15.9403 7.44836C16.0809 7.42141 16.1631 7.27346 16.0984 7.14579C15.9517 6.85612 15.7495 6.58264 15.4985 6.33506C15.176 6.01706 14.7793 5.74803 14.3309 5.54331C13.8824 5.33859 13.3912 5.20219 12.885 5.14191C12.3789 5.08164 11.8679 5.09865 11.3811 5.19199C10.8943 5.28533 10.4413 5.45316 10.048 5.68591C9.65468 5.91866 9.32871 6.21176 9.08871 6.54848C8.84872 6.8852 8.69939 7.25895 8.64926 7.64838C8.60702 7.97657 8.63592 8.31049 8.73426 8.63654C8.76636 8.74297 8.876 8.80293 8.98517 8.782V8.782C9.12573 8.75504 9.20674 8.60741 9.1721 8.46854C9.10901 8.21561 9.09326 7.95843 9.12586 7.70514C9.16979 7.36387 9.30065 7.03634 9.51097 6.74126C9.72129 6.44618 10.0069 6.18932 10.3516 5.98535C10.6963 5.78139 11.0933 5.63431 11.5199 5.55251C11.9465 5.47072 12.3943 5.45581 12.8378 5.50863C13.2814 5.56146 13.7119 5.68098 14.1049 5.86039C14.4978 6.03979 14.8455 6.27556 15.1281 6.55423C15.3606 6.78359 15.5453 7.03831 15.6754 7.30834C15.7237 7.40849 15.8311 7.4693 15.9403 7.44836V7.44836Z" fill="black" stroke="black" stroke-width="0.5"/>
<path d="M8.776 19.471C8.67956 19.4517 8.58196 19.5071 8.56462 19.6039C8.52661 19.816 8.54788 20.035 8.62817 20.2502C8.72968 20.5224 8.92284 20.7814 9.19291 21.0075C9.46299 21.2337 9.80284 21.4209 10.1865 21.5551C10.5702 21.6892 10.9876 21.7666 11.4069 21.7814C11.8261 21.7962 12.2361 21.7481 12.6056 21.6406C12.9751 21.5331 13.2943 21.3691 13.5389 21.1611C13.7835 20.9532 13.947 20.7068 14.0168 20.4407C14.0757 20.2165 14.0669 19.9834 13.9915 19.754C13.966 19.6766 13.8867 19.6331 13.806 19.6439V19.6439C13.685 19.6599 13.6142 19.7882 13.6391 19.9076C13.6717 20.0644 13.6682 20.2217 13.6282 20.3742C13.5683 20.6022 13.4282 20.8134 13.2186 20.9916C13.009 21.1698 12.7355 21.3103 12.4189 21.4024C12.1023 21.4945 11.7509 21.5358 11.3917 21.5231C11.0324 21.5104 10.6748 21.4441 10.346 21.3291C10.0172 21.2142 9.726 21.0537 9.49458 20.86C9.26315 20.6662 9.09764 20.4442 9.01066 20.211C8.951 20.0511 8.92937 19.8888 8.94591 19.7299C8.95806 19.6132 8.89105 19.494 8.776 19.471V19.471Z" fill="black" stroke="black" stroke-width="0.5"/>
<path d="M13.7539 19.5227C13.6224 19.5634 13.5652 19.7176 13.6504 19.8257C13.8398 20.0661 14.0809 20.2838 14.364 20.4692C14.7322 20.7101 15.1623 20.8903 15.6232 20.9968C16.0842 21.1033 16.5647 21.1334 17.0301 21.085C17.4955 21.0366 17.9342 20.9109 18.3148 20.7168C18.6953 20.5228 19.0082 20.2653 19.2309 19.9628C19.4537 19.6604 19.5807 19.3205 19.6029 18.9677C19.6251 18.6148 19.5419 18.2577 19.3592 17.9221C19.1965 17.623 18.9584 17.3476 18.659 17.1114C18.5936 17.0598 18.5016 17.062 18.4359 17.1132V17.1132C18.3373 17.1901 18.3403 17.3401 18.4346 17.4223C18.6446 17.6052 18.8139 17.8121 18.9348 18.0342C19.0912 18.3218 19.1625 18.6277 19.1435 18.9301C19.1245 19.2324 19.0157 19.5237 18.8248 19.7828C18.634 20.042 18.3659 20.2627 18.0398 20.4289C17.7137 20.5952 17.3377 20.703 16.9389 20.7444C16.5401 20.7859 16.1284 20.7601 15.7334 20.6689C15.3384 20.5776 14.9699 20.4232 14.6544 20.2167C14.3898 20.0435 14.168 19.8373 13.9998 19.6089C13.9432 19.5319 13.8452 19.4944 13.7539 19.5227V19.5227Z" fill="black" stroke="black" stroke-width="0.5"/>
<path d="M18.3588 17.009C18.2902 17.1187 18.316 17.2635 18.4245 17.3339C18.7943 17.5738 19.2062 17.728 19.6357 17.7863C20.1391 17.8546 20.6526 17.7892 21.1342 17.5955C21.6159 17.4019 22.052 17.0854 22.407 16.672C22.762 16.2585 23.0258 15.7598 23.177 15.2166C23.3281 14.6733 23.3622 14.1009 23.2766 13.5462C23.1909 12.9914 22.9879 12.4699 22.6841 12.0243C22.3803 11.5788 21.9843 11.2217 21.5285 10.9824C21.1474 10.7822 20.7334 10.6691 20.3107 10.6485C20.172 10.6417 20.0625 10.7576 20.0639 10.8964V10.8964C20.0653 11.0406 20.1858 11.1539 20.3297 11.1638C20.6747 11.1875 21.012 11.2833 21.3237 11.447C21.7143 11.6521 22.0536 11.958 22.3139 12.3398C22.5742 12.7216 22.7482 13.1685 22.8215 13.6439C22.8949 14.1192 22.8657 14.6097 22.7362 15.0752C22.6067 15.5407 22.3806 15.968 22.0764 16.3223C21.7722 16.6766 21.3985 16.9478 20.9858 17.1137C20.5731 17.2797 20.1331 17.3357 19.7018 17.2772C19.359 17.2307 19.0295 17.1129 18.7299 16.931C18.6043 16.8547 18.4367 16.8844 18.3588 17.009V17.009Z" fill="black" stroke="black" stroke-width="0.5"/>
<path d="M20.103 11.0471C20.1705 11.1407 20.2993 11.167 20.3934 11.1003C20.7205 10.8688 20.9959 10.5796 21.2041 10.2482C21.4475 9.86073 21.5924 9.42563 21.6281 8.9756C21.6638 8.52556 21.5893 8.07227 21.4101 7.64974C21.2309 7.22721 20.9517 6.84641 20.5935 6.53591C20.2353 6.22541 19.8073 5.99327 19.3417 5.85691C18.8761 5.72055 18.385 5.68351 17.9052 5.74857C17.4254 5.81363 16.9693 5.9791 16.5713 6.23256C16.2429 6.44162 15.9611 6.70607 15.7396 7.0118C15.663 7.11755 15.7037 7.26369 15.8189 7.32509V7.32509C15.9256 7.38191 16.0572 7.34471 16.1285 7.24711C16.3174 6.98838 16.557 6.76445 16.8356 6.58706C17.1767 6.36987 17.5674 6.22808 17.9786 6.17234C18.3897 6.11659 18.8106 6.14833 19.2095 6.26517C19.6085 6.38202 19.9752 6.58093 20.2821 6.847C20.5891 7.11306 20.8283 7.43937 20.9819 7.80143C21.1354 8.16349 21.1993 8.5519 21.1687 8.93753C21.1382 9.32317 21.0139 9.696 20.8053 10.0281C20.6377 10.295 20.419 10.53 20.1606 10.722C20.0579 10.7984 20.0281 10.9433 20.103 11.0471V11.0471Z" fill="black" stroke="black" stroke-width="0.5"/>
<path d="M15.8575 20.9948C15.8575 20.9396 15.9023 20.8948 15.9575 20.8948H16.2575C16.3128 20.8948 16.3575 20.9396 16.3575 20.9948V22.9948C16.3575 23.0501 16.4023 23.0948 16.4575 23.0948H17.3161C17.3426 23.0948 17.3681 23.1054 17.3868 23.1241L17.6751 23.4124C17.7397 23.477 17.691 23.5872 17.5998 23.583L15.953 23.5074C15.8996 23.505 15.8575 23.461 15.8575 23.4076V20.9948Z" fill="black" fill-opacity="0.7"/>
<path d="M6.85754 20.9948C6.85754 20.9396 6.90232 20.8948 6.95754 20.8948H7.25754C7.31277 20.8948 7.35754 20.9396 7.35754 20.9948V22.9948C7.35754 23.0501 7.40232 23.0948 7.45754 23.0948H8.31612C8.34264 23.0948 8.36808 23.1054 8.38683 23.1241L8.67511 23.4124C8.73969 23.477 8.69104 23.5872 8.59982 23.583L6.95296 23.5074C6.89957 23.505 6.85754 23.461 6.85754 23.4076V20.9948Z" fill="black" fill-opacity="0.7"/>
</svg>